# xmcd CD database file
#
# Track frame offsets:
#	150
#	18596
#	33574
#	45892
#	65146
#	77652
#	91265
#	105663
#	123796
#	136856
#	154713
#	175584
#	199932
#	225224
#	245119
#	275041
#
# Disc length: 3878 seconds
#
# Revision: 13
# Processed by: cddbd v1.5.1PL0 Copyright (c) Steve Scherf et al.
# Submitted via: CDex 1.51
#
DISCID=cc0f2410
DTITLE=STUDIO GHIBLI - STUDIO GHIBLI SONGS
DYEAR=1988
DGENRE=Anime
TTITLE0=????????/????
TTITLE1=????? (????????)/?????
TTITLE2=??? (???????)/?????????????
TTITLE3=???????/?????
TTITLE4=?????? (?????)/Amelita Galli-Curuci
TTITLE5=??????? (??????)/????
TTITLE6=?????????? (??????)/????
TTITLE7=?????????? (????????)/????
TTITLE8=????????? (???)/?????
TTITLE9=??????? (???)/?????
TTITLE10=?????? (??????)/????
TTITLE11=???????? (?????????)/????
TTITLE12=??????? (?????????)/????
TTITLE13=???????? (??????)/????
TTITLE14=On Your Mark/CHAGE and ASKA
TTITLE15=?????/????
EXTD=YEAR: 1988
EXTT0=
EXTT1=
EXTT2=
EXTT3=
EXTT4=
EXTT5=
EXTT6=
EXTT7=
EXTT8=
EXTT9=
EXTT10=
EXTT11=
EXTT12=
EXTT13=
EXTT14=
EXTT15=
PLAYORDER=
